<svg width="53" height="47" viewBox="0 0 53 47" fill="none" xmlns="http://www.w3.org/2000/svg">
<path d="M26.8219 46.1869C40.8181 46.1869 52.1642 36.1685 52.1642 23.8103C52.1642 11.452 40.8181 1.4337 26.8219 1.4337C12.8258 1.4337 1.47961 11.452 1.47961 23.8103C1.47961 36.1685 12.8258 46.1869 26.8219 46.1869Z" fill="#000055"/>
<path d="M26.8226 46.7784C8.90659 46.7784 0.87793 35.2384 0.87793 23.8027C0.87793 12.3669 8.89798 0.826935 26.8226 0.826935C44.7472 0.826935 52.7586 12.3669 52.7586 23.8027C52.7586 35.2384 44.7386 46.7784 26.8226 46.7784ZM26.8226 2.0339C12.0217 2.0339 2.07406 10.7866 2.07406 23.8113C2.07406 36.8361 12.0217 45.5888 26.8226 45.5888C41.6235 45.5888 51.5711 36.8361 51.5711 23.8113C51.5711 10.7866 41.6235 2.0339 26.8226 2.0339Z" fill="white"/>
<path d="M18.569 30.116L23.474 14.2084H27.1484L20.3503 34.2666H16.6243L9.74011 14.2084H13.5264L18.569 30.116Z" fill="white"/>
<path d="M28.1471 19.4863C28.1471 15.7265 32.0108 13.8423 35.6594 13.8423C39.5834 13.8423 42.6468 15.6397 43.4471 19.8163H40.0739C39.4973 17.4111 37.4148 16.7164 35.4701 16.7164C33.9383 16.7164 31.658 17.4111 31.658 19.3735C31.658 20.9191 32.9229 21.7006 34.6182 22.0305L37.062 22.4994C40.5471 23.1941 43.8601 24.4618 43.8601 28.4995C43.8601 32.5372 39.8845 34.6125 35.9692 34.6125C31.2535 34.6125 28.018 32.0162 27.6049 27.6138H31.0298C31.6322 30.349 33.3876 31.7383 36.1327 31.7383C38.4905 31.7383 40.3836 30.6616 40.3836 28.7253C40.3836 26.676 38.1893 25.9901 36.2962 25.6254L33.8867 25.1565C30.763 24.5226 28.1557 22.8902 28.1557 19.4863H28.1471Z" fill="white"/>
</svg>
