<svg width="524" height="95" viewBox="0 0 524 95" fill="none" xmlns="http://www.w3.org/2000/svg">
<g clip-path="url(#clip0_1_398)">
<path d="M523.509 0.949463H0.148804V94.3347H523.509V0.949463Z" fill="#FD267E"/>
<path d="M169.485 45.9131H138.274V36.8302H175.991V24.2886H120.195V70.9963H138.274V58.4547H169.485V45.9131Z" fill="#000055"/>
<path d="M268.604 55.387L252.054 24.2886H231.307L258.171 70.9963H278.768L305.632 24.2886H285.154L268.604 55.387Z" fill="#000055"/>
<path d="M363.586 47.2665C368.293 44.9808 370.512 41.3416 370.512 37.2212C370.512 29.5519 364.066 24.2886 351.354 24.2886H310.489V70.9662H352.283C365.925 70.9662 371.951 65.5526 371.951 57.763C371.951 53.402 369.313 49.432 363.556 47.2665M328.088 35.5069H348.266C350.604 35.5069 352.253 36.9806 352.253 39.0258C352.253 41.0709 350.604 42.5747 348.266 42.5747H328.088V35.5069ZM349.735 59.778H328.088V52.7102H349.735C352.073 52.7102 353.722 54.1839 353.722 56.2592C353.722 58.3344 352.073 59.8081 349.735 59.8081" fill="#000055"/>
<path d="M398.665 52.7102H429.786V42.5747H398.665V36.8302H433.084V24.2886H380.556V70.9963H433.894V58.4547H398.665V52.7102Z" fill="#000055"/>
<path d="M441.359 24.2886V36.8302H461.657V70.9963H479.946V36.8302H500.243V24.2886H441.359Z" fill="#000055"/>
<path d="M197.038 24.2886L170.175 70.9662H189.393L193.021 64.0789H221.743L225.371 70.9662H245.399L218.535 24.2886H197.068H197.038ZM199.437 51.9583L207.382 36.9205L215.327 51.9583H199.437Z" fill="#000055"/>
<path d="M23.5642 42.6047L39.6044 70.9962H60.1719L44.1316 42.6047H23.5642Z" fill="#000055"/>
<path d="M76.2414 42.6047L60.1713 70.9962H80.7687L96.8089 42.6047H76.2414Z" fill="#000055"/>
<path d="M60.1713 14.2734L44.1311 42.6047H76.2415L60.1713 14.2734Z" fill="#000055"/>
</g>
<defs>
<clipPath id="clip0_1_398">
<rect width="523.36" height="93.3852" fill="white" transform="translate(0.147827 0.949463)"/>
</clipPath>
</defs>
</svg>
